<svg width="503" height="991" viewBox="0 0 503 991" fill="none" xmlns="http://www.w3.org/2000/svg">
<path d="M477.735 325.5L484.153 322.704L483.909 322.144L483.571 321.634L477.735 325.5ZM12.7354 624L19.5737 625.496L19.5831 625.453L19.592 625.41L12.7354 624ZM147.997 983.458C151.84 983.038 154.614 979.582 154.194 975.739L147.343 913.112C146.922 909.269 143.466 906.495 139.623 906.915C135.78 907.336 133.005 910.792 133.426 914.635L139.516 970.303L83.8478 976.393C80.0048 976.813 77.2302 980.269 77.6506 984.113C78.071 987.956 81.5273 990.73 85.3703 990.31L147.997 983.458ZM71.3575 0.698561C56.903 77.0889 49.9633 194.358 76.4027 297.993C102.876 401.76 163.35 493.339 284.537 514.397L286.934 500.603C173.321 480.861 115.712 395.44 89.9682 294.532C64.1909 193.492 70.9012 78.4111 85.1134 3.30144L71.3575 0.698561ZM284.537 514.397C402.799 534.946 463.442 509.275 488.582 464.343C500.91 442.31 504.006 416.649 502.005 391.877C500.002 367.079 492.859 342.69 484.153 322.704L471.318 328.296C479.528 347.143 486.194 370.021 488.05 393.004C489.909 416.013 486.916 438.649 476.364 457.507C455.745 494.359 403.472 520.854 286.934 500.603L284.537 514.397ZM483.571 321.634C457.576 282.389 422.956 242.764 383.442 215.121C343.942 187.486 298.856 171.376 252.455 180.713C205.998 190.06 160.003 224.554 117.948 294.265C75.9088 363.95 37.357 469.51 5.87889 622.59L19.592 625.41C50.9139 473.09 89.0537 369.263 129.935 301.497C170.801 233.758 213.956 202.74 255.216 194.437C296.532 186.124 337.729 200.226 375.417 226.592C413.09 252.948 446.561 291.111 471.9 329.366L483.571 321.634ZM5.89713 622.504C-9.64779 693.567 -3.83142 864.203 142.853 981.959L151.618 971.041C10.3023 857.597 4.78532 693.1 19.5737 625.496L5.89713 622.504Z" fill="white"/>
</svg>
