<svg width="770" height="775" viewBox="0 0 770 775" fill="none" xmlns="http://www.w3.org/2000/svg">
<path d="M703.651 771.845C705.774 775.076 710.115 775.973 713.345 773.85L765.99 739.244C769.22 737.121 770.118 732.78 767.994 729.55C765.87 726.319 761.53 725.422 758.3 727.545L711.504 758.306L680.744 711.511C678.62 708.28 674.28 707.383 671.049 709.506C667.819 711.63 666.921 715.97 669.045 719.201L703.651 771.845ZM3.58834 37.3176C153.369 2.42141 367.246 -2.4494 523.802 94.4892C601.854 142.818 665.869 216.559 700.791 325.093C735.76 433.772 741.685 577.755 702.645 766.583L716.355 769.418C755.715 579.045 750.048 432.471 714.118 320.805C678.142 208.994 611.95 132.603 531.173 82.5863C370.071 -17.1668 151.798 -11.5876 0.411659 23.6828L3.58834 37.3176Z" fill="white"/>
</svg>
