<svg width="15" height="15" viewBox="0 0 15 15" fill="none" xmlns="http://www.w3.org/2000/svg">
<rect width="15" height="15" rx="2" fill="#072A85"/>
<path d="M1.84517 13V5.36364H3.96307V13H1.84517ZM2.90909 4.37926C2.59422 4.37926 2.3241 4.27486 2.09872 4.06605C1.87666 3.85393 1.76562 3.60038 1.76562 3.3054C1.76562 3.01373 1.87666 2.76349 2.09872 2.55469C2.3241 2.34257 2.59422 2.23651 2.90909 2.23651C3.22396 2.23651 3.49242 2.34257 3.71449 2.55469C3.93987 2.76349 4.05256 3.01373 4.05256 3.3054C4.05256 3.60038 3.93987 3.85393 3.71449 4.06605C3.49242 4.27486 3.22396 4.37926 2.90909 4.37926ZM7.77752 8.58523V13H5.65962V5.36364H7.67809V6.71094H7.76758C7.93661 6.26681 8.21999 5.91548 8.61772 5.65696C9.01545 5.39512 9.49769 5.2642 10.0645 5.2642C10.5948 5.2642 11.0571 5.38021 11.4515 5.61222C11.8459 5.84422 12.1525 6.17566 12.3713 6.60653C12.59 7.03409 12.6994 7.54451 12.6994 8.13778V13H10.5815V8.51562C10.5848 8.0483 10.4655 7.68371 10.2235 7.42188C9.98159 7.15672 9.6485 7.02415 9.22425 7.02415C8.93922 7.02415 8.68732 7.08546 8.46857 7.2081C8.25314 7.33073 8.0841 7.50971 7.96147 7.74503C7.84215 7.97704 7.78084 8.2571 7.77752 8.58523Z" fill="white"/>
</svg>
