<svg width="13vw" height="12vw" viewBox="0 0 13 12" fill="none" xmlns="http://www.w3.org/2000/svg">
<path d="M13 1.33333C12.5215 1.56042 12.0078 1.7125 11.4688 1.78125C12.0195 1.42917 12.4414 0.870833 12.6406 0.20625C12.125 0.533333 11.5547 0.770833 10.9473 0.897917C10.4609 0.345834 9.76758 0 9 0C7.52734 0 6.33203 1.27292 6.33203 2.84375C6.33203 3.06667 6.35742 3.28542 6.40234 3.49167C4.18555 3.37292 2.2207 2.24167 0.904297 0.51875C0.675781 0.939583 0.544922 1.42708 0.544922 1.95C0.544922 2.9375 1.01367 3.80833 1.73047 4.31667C1.29297 4.30208 0.880859 4.175 0.521484 3.9625C0.521484 3.975 0.521484 3.98542 0.521484 3.99792C0.521484 5.37708 1.44141 6.52708 2.66211 6.7875C2.4375 6.85208 2.20117 6.8875 1.95898 6.8875C1.78711 6.8875 1.61914 6.86875 1.45703 6.83542C1.79688 7.96667 2.78125 8.78958 3.94922 8.8125C3.03516 9.575 1.88672 10.0292 0.636719 10.0292C0.421875 10.0292 0.208984 10.0167 0 9.98958C1.17969 10.7979 2.58203 11.2687 4.08789 11.2687C8.99414 11.2687 11.6758 6.93333 11.6758 3.17292C11.6758 3.05 11.6738 2.92708 11.668 2.80625C12.1895 2.40417 12.6426 1.90417 13 1.33333Z" fill="#2793AE"/>
</svg>
